#!OML:ASF F:\VICON\USERDATA\INSTALL\rory3\rory3.ASF
:FULLY-SPECIFIED
:DEGREES
2735
root -0.45825 18.224 -0.503327 -0.518396 6.05201 -2.33377
lowerback 7.16706 1.53409 -2.01326
upperback 0.979652 1.84122 -1.37721
thorax -3.02282 0.932058 -0.468847
lowerneck -13.4016 -2.02651 -8.14551
upperneck 6.95252 -2.15429 8.73967
head 4.44898 -0.758287 3.8818
rclavicle -5.06901e-015 -2.38542e-014
rhumerus -29.9054 -22.7854 -43.5946
rradius 63.9715
rwrist -11.1277
rhand -38.3894 6.2843
rfingers 7.12502
rthumb -11.4148 -23.385
lclavicle -5.06901e-015 -2.38542e-014
lhumerus -37.6748 10.2105 48.5273
lradius 36.6541
lwrist 10.3303
lhand -32.9895 16.1036
lfingers 7.12502
lthumb -6.2041 45.9928
rfemur -7.40425 14.6319 14.1876
rtibia 38.0632
rfoot -20.8773 -13.5818
rtoes -16.4446
lfemur -12.7759 -0.353085 -10.3925
ltibia 37.546
lfoot -20.7395 6.49987
ltoes -8.46106
2736
root -0.499117 18.1504 -0.52096 -0.623957 5.96009 -2.70485
lowerback 7.40511 1.55283 -1.63673
upperback 1.07429 1.89535 -1.2382
thorax -3.05072 0.955171 -0.546879
lowerneck -13.4826 -2.03565 -8.09159
upperneck 6.65543 -2.14888 8.68819
head 4.36951 -0.756136 3.85491
rclavicle -2.19657e-014 1.74931e-014
rhumerus -29.861 -23.0816 -43.8045
rradius 63.4869
rwrist -13.0252
rhand -38.6429 5.63069
rfingers 7.12502
rthumb -11.6593 -24.0249
lclavicle -2.19657e-014 1.74931e-014
lhumerus -38.034 10.6145 48.7834
lradius 37.484
lwrist 12.1964
lhand -32.4375 16.0029
lfingers 7.12502
lthumb -5.67117 45.907
rfemur -7.78631 14.5715 14.674
rtibia 38.8224
rfoot -21.63 -13.4783
rtoes -16.7191
lfemur -13.7026 0.255998 -9.7335
ltibia 39.2726
lfoot -21.2062 5.91057
ltoes -8.99686
2737
root -0.539718 18.0715 -0.540373 -0.750962 5.82729 -3.17737
lowerback 7.74936 1.59152 -1.17981
upperback 1.1161 1.98271 -1.06024
thorax -3.19058 0.994296 -0.637887
lowerneck -13.5589 -2.05519 -7.96865
upperneck 6.38539 -2.16213 8.53835
head 4.29702 -0.767192 3.78435
rclavicle 1.17283e-014 -6.36111e-015
rhumerus -30.0617 -23.5005 -43.8206
rradius 63.0902
rwrist -14.5016
rhand -37.8151 6.04592
rfingers 7.12502
rthumb -10.8609 -23.6532
lclavicle 1.17283e-014 -6.36111e-015
lhumerus -38.4414 10.9764 49.0682
lradius 38.3615
lwrist 14.3323
lhand -31.7271 16.0142
lfingers 7.12502
lthumb -4.98527 45.9356
rfemur -8.24504 14.6786 15.2673
rtibia 39.6394
rfoot -22.3623 -13.4535
rtoes -17.78
lfemur -14.5943 0.842155 -8.96116
ltibia 40.9876
lfoot -21.7209 5.32293
ltoes -9.46349
2738
root -0.577442 17.9889 -0.560791 -0.851006 5.72538 -3.50996
lowerback 8.10478 1.60383 -0.854465
upperback 1.16737 2.02612 -0.917572
thorax -3.32948 1.01252 -0.687713
lowerneck -13.5952 -2.05231 -7.85248
upperneck 5.99427 -2.14379 8.41818
head 4.17884 -0.762328 3.72633
rclavicle -6.4605e-015 2.38542e-015
rhumerus -30.2104 -23.8943 -43.8618
rradius 62.7837
rwrist -15.8753
rhand -36.6252 6.27878
rfingers 7.12502
rthumb -9.71306 -23.4773
lclavicle -6.4605e-015 2.38542e-015
lhumerus -38.85 11.4554 49.3404
lradius 39.229
lwrist 16.6907
lhand -31.2121 16.1647
lfingers 7.12502
lthumb -4.48795 46.0971
rfemur -8.73289 14.7698 15.6757
rtibia 40.5297
rfoot -23.2111 -13.2566
rtoes -18.1129
lfemur -15.4741 1.2894 -8.36472
ltibia 42.666
lfoot -22.2755 4.80348
ltoes -9.44196
2739
root -0.61428 17.9026 -0.585129 -0.959122 5.64114 -3.63719
lowerback 8.49719 1.59085 -0.751055
upperback 1.27996 2.01701 -0.819423
thorax -3.43145 1.0069 -0.653427
lowerneck -13.6899 -2.04742 -7.75803
upperneck 5.54085 -2.1165 8.34417
head 4.05138 -0.749862 3.68709
rclavicle -6.85807e-015 -8.74653e-015
rhumerus -30.1229 -24.2464 -44.0121
rradius 62.4455
rwrist -17.3914
rhand -35.7583 5.55193
rfingers 7.12502
rthumb -8.87658 -24.2414
lclavicle -6.85807e-015 -8.74653e-015
lhumerus -39.2298 12.1184 49.5883
lradius 40.1533
lwrist 19.2571
lhand -30.8172 16.2233
lfingers 7.12502
lthumb -4.10661 46.1635
rfemur -9.20765 14.8016 15.8491
rtibia 41.5145
rfoot -24.1124 -12.9343
rtoes -17.8015
lfemur -16.2945 1.63429 -8.00378
ltibia 44.2721
lfoot -22.8382 4.39882
ltoes -9.96387
2740
root -0.651965 17.8142 -0.608388 -1.09382 5.51959 -3.7637
lowerback 8.83239 1.60293 -0.695785
upperback 1.46874 2.03939 -0.713985
thorax -3.4241 1.01763 -0.58475
lowerneck -13.9047 -2.05339 -7.70661
upperneck 5.12939 -2.10009 8.37588
head 3.95909 -0.735204 3.6878
rclavicle -1.00386e-014 7.95139e-016
rhumerus -29.9542 -24.5932 -44.166
rradius 62.0692
rwrist -19.023
rhand -35.2901 4.95262
rfingers 7.12502
rthumb -8.42475 -24.8594
lclavicle -1.00386e-014 7.95139e-016
lhumerus -39.3691 12.8977 49.8228
lradius 40.9229
lwrist 21.7206
lhand -30.275 15.9859
lfingers 7.12502
lthumb -3.583 45.9356
rfemur -9.80286 14.8484 16.0264
rtibia 42.6274
rfoot -24.8106 -12.7605
rtoes -18.2588
lfemur -16.9912 1.91447 -7.6352
ltibia 45.77
lfoot -23.3992 3.99412
ltoes -10.3266
